<?xml version="1.0" encoding="UTF-8"?>
<svg version="1.1" xmlns="http://www.w3.org/2000/svg" width="1024" height="1024">
<path d="M0 0 C14.19 0 28.38 0 43 0 C43 0.33 43 0.66 43 1 C44.07314453 1.15033691 44.07314453 1.15033691 45.16796875 1.30371094 C48.44754132 1.77146369 51.72359843 2.26054871 55 2.75 C56.68802734 2.98589844 56.68802734 2.98589844 58.41015625 3.2265625 C66.20480067 4.41171311 72.86905377 5.71250646 78.5 11.625 C80 14 80 14 80 16 C80.66 16.33 81.32 16.66 82 17 C81.82119708 18.64930278 81.60487952 20.29453757 81.375 21.9375 C81.25898437 22.85402344 81.14296875 23.77054688 81.0234375 24.71484375 C77.55694829 35.84200949 67.65166879 43.66291331 59.5625 51.5625 C57.60382224 53.4858077 55.64743815 55.411369 53.6938324 57.33982849 C52.48610899 58.53092398 51.27529987 59.71890303 50.0606842 60.90296936 C47.13034826 63.78230541 44.34025742 66.71860248 41.66137695 69.83422852 C37.53623364 74.60833824 33.08325103 79.02375207 28.6015625 83.4609375 C27.72599701 84.33271637 26.85043152 85.20449524 25.94833374 86.10269165 C22.70304953 89.33377315 19.45315172 92.56018902 16.203125 95.78649902 C12.99988559 98.96692099 9.80036817 102.15105723 6.6015625 105.3359375 C5.32981674 106.59523575 5.32981674 106.59523575 4.03237915 107.87997437 C2.86513809 109.04226059 2.86513809 109.04226059 1.67431641 110.22802734 C0.98705475 110.91005219 0.29979309 111.59207703 -0.40829468 112.29476929 C-2.0804316 113.92470219 -2.0804316 113.92470219 -3 116 C-3.66 116 -4.32 116 -5 116 C-5.26734955 116.59364853 -5.5346991 117.18729706 -5.81015015 117.79893494 C-7.0180697 120.03342657 -8.22679483 121.45148208 -10.03759766 123.21704102 C-10.65228912 123.82189835 -11.26698059 124.42675568 -11.90029907 125.04994202 C-12.564841 125.69475021 -13.22938293 126.33955841 -13.9140625 127.00390625 C-15.32955836 128.39895535 -16.74491847 129.79414221 -18.16015625 131.18945312 C-20.38227579 133.3683797 -22.60681204 135.54475618 -24.83447266 137.71801758 C-39.75087102 150.82431604 -39.75087102 150.82431604 -48 168 C-48.66 168 -49.32 168 -50 168 C-49.88660796 170.64680904 -49.75987127 173.29177518 -49.625 175.9375 C-49.57859375 177.06961914 -49.57859375 177.06961914 -49.53125 178.22460938 C-49.4273685 180.15507395 -49.22104386 182.07942081 -49 184 C-48.34 184.33 -47.68 184.66 -47 185 C-46.60534792 187.58317727 -46.49193848 190.14188281 -46.34375 192.75 C-46.2303125 193.4925 -46.116875 194.235 -46 195 C-45.34 195.33 -44.68 195.66 -44 196 C-43.60534792 198.58317727 -43.49193848 201.14188281 -43.34375 203.75 C-43.2303125 204.4925 -43.116875 205.235 -43 206 C-42.34 206.33 -41.68 206.66 -41 207 C-40.34982415 210.61208807 -39.97419324 214.22857413 -39.5625 217.875 C-39.376875 218.90625 -39.19125 219.9375 -39 221 C-38.34 221.33 -37.68 221.66 -37 222 C-37.33 222.99 -37.66 223.98 -38 225 C-37.34 225.33 -36.68 225.66 -36 226 C-35.75520933 227.53868421 -35.52538501 229.08059836 -35.3515625 230.62890625 C-34.73064928 234.81662095 -33.63011254 238.90322596 -32.62109375 243.01171875 C-32 246 -32 246 -32 250 C-31.34 250.33 -30.68 250.66 -30 251 C-29.75983726 253.05853777 -29.5305303 255.11883556 -29.3515625 257.18359375 C-28.80434023 261.56745215 -27.69025209 265.8002823 -26.62109375 270.08203125 C-26 273 -26 273 -26 277 C-25.34 277.33 -24.68 277.66 -24 278 C-23.896875 279.134375 -23.79375 280.26875 -23.6875 281.4375 C-22.82242658 289.61904188 -18.50491762 296.07023098 -12.74609375 301.72265625 C-11.06948368 303.1196808 -11.06948368 303.1196808 -8.97265625 303.49609375 C-7 304 -7 304 -5.62890625 305.4296875 C0.08690754 310.93989648 11.37295109 311.65566371 19 312 C19 312.66 19 313.32 19 314 C19.7425 313.814375 20.485 313.62875 21.25 313.4375 C23.94990963 313.00796892 25.44631077 313.14877026 28 314 C28 314.66 28 315.32 28 316 C30.97 316 33.94 316 37 316 C37 316.66 37 317.32 37 318 C38.299375 318.144375 39.59875 318.28875 40.9375 318.4375 C47.96875 319.21875 47.96875 319.21875 55 320 C55 320.66 55 321.32 55 322 C56.65 321.67 58.3 321.34 60 321 C60 321.66 60 322.32 60 323 C64.29 323.33 68.58 323.66 73 324 C73 324.66 73 325.32 73 326 C74.26457031 326.11214844 75.52914062 326.22429687 76.83203125 326.33984375 C81.29945826 326.83486644 85.54793635 327.77880924 89.90380859 328.8671875 C107.08582825 333.29341822 107.08582825 333.29341822 124.1875 330.1328125 C127.21177973 328.24263767 129.77203696 325.89264173 132.3359375 323.42578125 C134 322 134 322 136 322 C136.32806137 321.18347206 136.32806137 321.18347206 136.66275024 320.35044861 C138.44270126 317.22187567 140.85078505 314.89510863 143.39599609 312.39282227 C143.9458165 311.8443161 144.4956369 311.29580994 145.06211853 310.73068237 C146.87800311 308.92128044 148.70075694 307.11895985 150.5234375 305.31640625 C151.78945909 304.05665808 153.05496491 302.79639136 154.31997681 301.53562927 C157.65150162 298.21740422 160.98854314 294.90478778 164.32720947 291.59375 C169.66500746 286.29906677 174.99615433 280.99770876 180.32399368 275.69300652 C182.18279617 273.84439331 184.04499416 271.99925231 185.90756226 270.1544342 C187.05356373 269.01526486 188.1994538 267.87598343 189.34521484 266.73657227 C189.86068375 266.22784073 190.37615265 265.71910919 190.90724182 265.19496155 C193.17644829 262.93288745 195.2563994 260.67110082 197.22842407 258.14146423 C197.81304413 257.43478104 198.39766418 256.72809784 199 256 C199.66 256 200.32 256 201 256 C201.35498817 255.15654526 201.35498817 255.15654526 201.71714783 254.29605103 C203.29788655 251.46684213 205.22241841 249.54564318 207.52563477 247.26318359 C207.98273834 246.80739426 208.43984192 246.35160492 208.91079712 245.88200378 C210.41644788 244.38282229 211.92894464 242.89074472 213.44140625 241.3984375 C214.49041175 240.35570488 215.53890211 239.31245379 216.5868988 238.26870728 C219.34252892 235.52636196 222.1036752 232.7896445 224.86645508 230.05450439 C229.29334756 225.67078479 233.71348843 221.28028259 238.13044548 216.88655472 C239.67530686 215.3519302 241.22352789 213.8207552 242.77210999 212.28988647 C243.70655441 211.36197296 244.64099884 210.43405945 245.60375977 209.47802734 C246.4304567 208.65958344 247.25715363 207.84113953 248.10890198 206.99789429 C250.05114474 205.13943257 250.05114474 205.13943257 251 203 C251.66 203 252.32 203 253 203 C253.33 202.01 253.66 201.02 254 200 C255.99609375 198.39453125 255.99609375 198.39453125 258.4375 196.8125 C259.24058594 196.28269531 260.04367187 195.75289062 260.87109375 195.20703125 C263 194 263 194 265 194 C265.33 193.34 265.66 192.68 266 192 C276.07604861 192.63661309 276.07604861 192.63661309 280 196 C283.61522761 201.12157245 284.36314726 204.84375687 285 211 C285.66 211.33 286.32 211.66 287 212 C286.67 213.32 286.34 214.64 286 216 C286.66 216.33 287.32 216.66 288 217 C287.9690625 218.423125 287.9690625 218.423125 287.9375 219.875 C287.77448174 222.90666283 287.77448174 222.90666283 289 225 C288.91348369 226.54613014 288.75997364 228.08909387 288.5625 229.625 C288.40974609 230.85089844 288.40974609 230.85089844 288.25390625 232.1015625 C288.17011719 232.72804688 288.08632813 233.35453125 288 234 C288.66 234 289.32 234 290 234 C290 245.55 290 257.1 290 269 C289.67 269 289.34 269 289 269 C288.94392578 270.72283203 288.94392578 270.72283203 288.88671875 272.48046875 C288.51034806 282.01656779 287.4171627 290.7412159 285 300 C284.2462943 303.18208163 283.52771723 306.37157985 282.8125 309.5625 C282.63356201 310.33722656 282.45462402 311.11195313 282.27026367 311.91015625 C281.48550662 315.387422 281 318.41633366 281 322 C280.34 322 279.68 322 279 322 C279 324.31 279 326.62 279 329 C278.34 329 277.68 329 277 329 C276.731875 330.27875 276.46375 331.5575 276.1875 332.875 C273.84032329 343.36238532 273.84032329 343.36238532 272 348 C271.01 348.495 271.01 348.495 270 349 C269.36828889 351.0004185 268.738088 353.00132051 268.11328125 355.00390625 C266.42391906 359.5503652 264.18934525 363.7943147 261.98510742 368.10888672 C260.11825159 371.76486671 258.31687462 375.41720291 256.6875 379.1875 C254.35986847 384.52795328 251.3116592 388.96082461 247.79296875 393.57421875 C245.67809358 396.43552045 243.68762968 399.36990083 241.6875 402.3125 C228.67437514 421.26645853 212.11241242 438.87231831 194 453 C193.38382813 453.48726562 192.76765625 453.97453125 192.1328125 454.4765625 C167.78918531 473.70518631 127.43632638 504 95 504 C94.67 504.66 94.34 505.32 94 506 C92.234375 506.4921875 92.234375 506.4921875 89.75 506.875 C82.98271883 507.98803967 76.25830495 509.2842651 69.52636719 510.59130859 C65.68595218 511.32908376 61.86173218 512.04435274 57.984375 512.55859375 C55.08105689 512.82966592 55.08105689 512.82966592 53 514 C50.69181336 514.06890109 48.40190983 513.9974522 46.09375 513.9375 C43.93974478 513.85499134 43.93974478 513.85499134 42 515 C39.30106819 515.08675538 36.62830769 515.11557897 33.9296875 515.09765625 C33.13345978 515.0962413 32.33723206 515.09482635 31.51687622 515.09336853 C28.9695462 515.08776345 26.42230353 515.07521014 23.875 515.0625 C22.14974085 515.05748565 20.42448033 515.05292263 18.69921875 515.04882812 C14.46611209 515.03779237 10.23307086 515.02052436 6 515 C6 514.67 6 514.34 6 514 C2.04 514 -1.92 514 -6 514 C-6 513.67 -6 513.34 -6 513 C-8.64 513 -11.28 513 -14 513 C-14 512.34 -14 511.68 -14 511 C-17.81377203 511.27637961 -21.62562635 511.57364834 -25.4375 511.875 C-26.52611328 511.95363281 -27.61472656 512.03226563 -28.73632812 512.11328125 C-29.77080078 512.19707031 -30.80527344 512.28085937 -31.87109375 512.3671875 C-32.82943115 512.44050293 -33.78776855 512.51381836 -34.77514648 512.58935547 C-35.50934814 512.72486816 -36.2435498 512.86038086 -37 513 C-37.33 513.66 -37.66 514.32 -38 515 C-39.78515625 515.640625 -39.78515625 515.640625 -42.0625 516.25 C-55.25204273 520.49395381 -63.6617385 533.11914544 -71.82348633 543.66601562 C-74.95077949 547.70038294 -78.17759429 551.6251402 -81.5 555.5 C-85.28215627 559.91553815 -88.93259308 564.40926054 -92.5 569 C-96.98195755 574.76491192 -101.63552266 580.35616078 -106.375 585.91015625 C-110.32605281 590.54426754 -114.15740788 595.27595305 -118 600 C-119.49943092 601.83379879 -120.99943458 603.66712943 -122.5 605.5 C-123.2425 606.4075 -123.985 607.315 -124.75 608.25 C-140.5 627.5 -140.5 627.5 -142.76953125 630.2734375 C-144.20499935 632.02817784 -145.63993796 633.78335155 -147.07421875 635.5390625 C-152.31335449 641.94998276 -157.57353722 648.34332235 -162.83984375 654.73193359 C-166.13366085 658.72889509 -169.41705397 662.73386879 -172.6875 666.75 C-175.93419203 670.726896 -179.23721892 674.65147094 -182.5625 678.5625 C-186.36555538 683.03729423 -190.08066406 687.56668748 -193.73046875 692.16796875 C-198.46565575 698.07676492 -203.31096566 703.89651532 -208.13134766 709.73583984 C-211.19415223 713.44689937 -214.25348879 717.16081344 -217.3125 720.875 C-217.89878174 721.5868042 -218.48506348 722.2986084 -219.08911133 723.03198242 C-223.73816477 728.67815541 -228.37239433 734.33623215 -233 740 C-233.68964844 740.84175781 -234.37929688 741.68351563 -235.08984375 742.55078125 C-239.57313757 748.02315617 -244.04060384 753.5081518 -248.5 759 C-257.06196195 769.54270518 -265.67455775 780.04293472 -274.3125 790.5234375 C-276.75283017 793.48466442 -279.19019518 796.44829105 -281.625 799.4140625 C-288.67977257 808.00352714 -295.77988713 816.54891706 -303 825 C-303.62132812 825.73476563 -304.24265625 826.46953125 -304.8828125 827.2265625 C-322.06388087 847.28446092 -345.39274727 865.07273098 -372 870 C-375 870.125 -375 870.125 -377 870 C-377.33 870.66 -377.66 871.32 -378 872 C-379.98 871.67 -381.96 871.34 -384 871 C-384 871.66 -384 872.32 -384 873 C-393.9 872.67 -403.8 872.34 -414 872 C-414 871.67 -414 871.34 -414 871 C-420.91159038 869.27071163 -420.91159038 869.27071163 -428 869 C-428 868.34 -428 867.68 -428 867 C-431.3 866.67 -434.6 866.34 -438 866 C-438 865.34 -438 864.68 -438 864 C-438.70125 863.84144531 -439.4025 863.68289063 -440.125 863.51953125 C-446.65693099 861.91317322 -451.50376987 859.79477052 -457 856 C-458.77020835 854.91564573 -460.54108955 853.83238941 -462.3125 852.75 C-477.29371298 843.16947291 -488.76265315 830.99192099 -498.89477539 816.54931641 C-499.76549862 815.3287267 -500.68331534 814.14172952 -501.6171875 812.96875 C-503.52007443 810.25955504 -504.81238695 807.383272 -506.1875 804.375 C-506.71730469 803.22773437 -507.24710938 802.08046875 -507.79296875 800.8984375 C-509 798 -509 798 -509 796 C-509.66 795.67 -510.32 795.34 -511 795 C-511.33333333 792.66666667 -511.66666667 790.33333333 -512 788 C-512.66 787.67 -513.32 787.34 -514 787 C-515.78997496 779.60143682 -516.81183826 772.03736172 -517.94702148 764.51416016 C-518.06891846 763.71671387 -518.19081543 762.91926758 -518.31640625 762.09765625 C-518.47798218 761.02269897 -518.47798218 761.02269897 -518.64282227 759.92602539 C-518.99285997 757.79151295 -518.99285997 757.79151295 -520 755 C-520.07051114 752.26134713 -520.09357765 749.54972412 -520.0625 746.8125 C-520.05798828 746.06291016 -520.05347656 745.31332031 -520.04882812 744.54101562 C-520.03706354 742.69397617 -520.01912865 740.84697787 -520 739 C-519.67 739 -519.34 739 -519 739 C-519 736.03 -519 733.06 -519 730 C-518.34 730 -517.68 730 -517 730 C-516.95101562 729.40574219 -516.90203125 728.81148437 -516.8515625 728.19921875 C-515.65851162 714.9728098 -515.65851162 714.9728098 -514 709 C-513.34 708.67 -512.68 708.34 -512 708 C-511.37348802 706.19114907 -511.37348802 706.19114907 -510.875 703.9375 C-504.17140127 680.44138643 -487.49133188 661.11921266 -470.40625 644.40234375 C-468.37287881 642.37227348 -466.48188992 640.31412758 -464.625 638.125 C-461.43870588 634.38456778 -457.99120031 630.95196232 -454.5 627.5 C-451.05061837 624.08929941 -447.63880077 620.7037849 -444.5 617 C-441.36119838 613.29621409 -437.94937045 609.91071121 -434.5 606.5 C-429.40418006 601.46149994 -429.40418006 601.46149994 -424.625 596.125 C-421.14750647 592.01841216 -417.32029801 588.2834803 -413.5 584.5 C-409.13468589 580.17671563 -404.89386035 575.85323164 -400.93359375 571.15234375 C-397.49111932 567.32041767 -393.77333598 563.75498084 -390.11303711 560.13256836 C-387.13182682 557.17043018 -384.2142922 554.21283566 -381.5 551 C-378.21603046 547.11285239 -374.61386156 543.57645583 -371 540 C-365.61461721 534.6879844 -365.61461721 534.6879844 -360.5625 529.0625 C-358.22969176 526.35256021 -355.82512863 523.77031491 -353.28515625 521.25390625 C-352.60445068 520.57642334 -351.92374512 519.89894043 -351.22241211 519.20092773 C-349.83917192 517.83185645 -348.45332008 516.46541812 -347.06469727 515.10180664 C-346.42717529 514.47266357 -345.78965332 513.84352051 -345.1328125 513.1953125 C-344.55418457 512.62828613 -343.97555664 512.06125977 -343.37939453 511.47705078 C-341.89627065 510.02889834 -341.89627065 510.02889834 -341 508 C-340.34 508 -339.68 508 -339 508 C-338.75016357 507.4234668 -338.50032715 506.84693359 -338.24291992 506.25292969 C-336.82641968 503.68536649 -335.21078033 502.00010232 -333.11328125 499.953125 C-331.9521582 498.8084375 -331.9521582 498.8084375 -330.76757812 497.640625 C-329.95740234 496.85171875 -329.14722656 496.0628125 -328.3125 495.25 C-323.22000089 490.26956077 -318.27686742 485.2692492 -313.63745117 479.86230469 C-311.06269833 476.9339888 -308.28762902 474.22372921 -305.5 471.5 C-301.44295803 467.49344872 -297.560008 463.4411067 -293.87109375 459.08984375 C-290.86056104 455.72734897 -287.61874836 452.59888032 -284.40869141 449.42822266 C-281.00881086 446.05399352 -277.8122153 442.57493915 -274.70703125 438.92578125 C-272.08162367 435.963937 -269.24599217 433.22372375 -266.40625 430.46875 C-263.78389151 427.77827831 -261.3401503 424.96902677 -258.87841797 422.13232422 C-255.77624588 418.61083072 -252.54195356 415.21690373 -249.3125 411.8125 C-247.90336019 410.31797761 -246.49450878 408.82318324 -245.0859375 407.328125 C-243.12978912 405.25411434 -241.17245687 403.18138516 -239.20800781 401.11523438 C-223.57998473 384.86520358 -223.57998473 384.86520358 -217.17578125 363.84765625 C-217 362 -217 362 -216 360 C-215.92907158 357.7927077 -215.91584975 355.58332548 -215.9375 353.375 C-215.95103516 351.59222656 -215.95103516 351.59222656 -215.96484375 349.7734375 C-215.97644531 348.85820312 -215.98804688 347.94296875 -216 347 C-216.66 346.67 -217.32 346.34 -218 346 C-218 344.02 -218 342.04 -218 340 C-218.66 339.67 -219.32 339.34 -220 339 C-220.48225719 336.96763041 -220.95099379 334.93130534 -221.359375 332.8828125 C-222.39292658 328.23183038 -223.82081797 323.69662944 -225.1953125 319.13671875 C-226 316 -226 316 -226 312 C-226.66 311.67 -227.32 311.34 -228 311 C-228 308.36 -228 305.72 -228 303 C-228.66 302.67 -229.32 302.34 -230 302 C-230.37890625 300.00390625 -230.37890625 300.00390625 -230.5625 297.5625 C-230.8061175 294.15371795 -230.8061175 294.15371795 -232 291 C-232 289.33333333 -232 287.66666667 -232 286 C-232.33 285.34 -232.66 284.68 -233 284 C-233 282 -233 280 -233 278 C-233.33 277.34 -233.66 276.68 -234 276 C-234.0692864 273.75685289 -233.99751666 271.53218515 -233.9375 269.2890625 C-233.89874031 267.07577852 -233.89874031 267.07577852 -234.49780273 265.33251953 C-235.2097432 262.02582086 -235.1224246 258.75554492 -235.09765625 255.390625 C-235.09553383 254.30041046 -235.09553383 254.30041046 -235.09336853 253.18817139 C-235.08778792 250.87540506 -235.07523904 248.56273688 -235.0625 246.25 C-235.05748249 244.67838682 -235.05292002 243.10677211 -235.04882812 241.53515625 C-235.03782485 237.69006657 -235.02057361 233.8450499 -235 230 C-234.67 230 -234.34 230 -234 230 C-234 226.37 -234 222.74 -234 219 C-233.67 219 -233.34 219 -233 219 C-232.96261719 218.18917969 -232.92523438 217.37835938 -232.88671875 216.54296875 C-232.78810547 214.88201172 -232.78810547 214.88201172 -232.6875 213.1875 C-232.62949219 212.10855469 -232.57148438 211.02960938 -232.51171875 209.91796875 C-231.84079124 204.78101997 -230.41929543 199.9728858 -229 195 C-228.55345932 193.29691087 -228.11191451 191.59250272 -227.67578125 189.88671875 C-222.88463924 171.47087649 -217.00227043 153.660482 -207.98681641 136.85595703 C-206.99928432 134.99865399 -206.04910102 133.12602816 -205.10546875 131.24609375 C-196.70870852 114.71497204 -185.64158379 100.06430568 -173.171875 86.390625 C-171.14592444 84.16062186 -169.16064384 81.90170443 -167.1875 79.625 C-162.33295455 74.07373737 -162.33295455 74.07373737 -160 72 C-159.34 72 -158.68 72 -158 72 C-158 71.34 -158 70.68 -158 70 C-156.47162731 68.60400604 -154.87349901 67.28412351 -153.25 66 C-152.23164063 65.18917969 -151.21328125 64.37835938 -150.1640625 63.54296875 C-149.63329102 63.12063965 -149.10251953 62.69831055 -148.55566406 62.26318359 C-147.12245737 61.09943415 -145.7270999 59.88947865 -144.3359375 58.67578125 C-130.37327019 46.50371536 -114.36747925 36.60530593 -98 28 C-97.1035376 27.52796143 -97.1035376 27.52796143 -96.18896484 27.04638672 C-86.53026055 22 -86.53026055 22 -84 22 C-83.67 21.34 -83.34 20.68 -83 20 C-81.09936523 19.27807617 -81.09936523 19.27807617 -78.62109375 18.60546875 C-74.88943934 17.54981647 -71.20613238 16.42708583 -67.53515625 15.17578125 C-66.63345703 14.86962891 -65.73175781 14.56347656 -64.80273438 14.24804688 C-62.94783774 13.61476428 -61.0936905 12.97928317 -59.24023438 12.34179688 C-58.34755859 12.03951172 -57.45488281 11.73722656 -56.53515625 11.42578125 C-55.734729 11.15161377 -54.93430176 10.87744629 -54.10961914 10.5949707 C-52 10 -52 10 -49 10 C-48.67 9.34 -48.34 8.68 -48 8 C-44.35999043 7.45851097 -40.74584619 7.10868448 -37.08203125 6.7890625 C-35.04753715 6.58872182 -33.02208273 6.3008057 -31 6 C-30.67 5.34 -30.34 4.68 -30 4 C-27.5234375 3.62109375 -27.5234375 3.62109375 -24.375 3.4375 C-16.4649051 3.19579283 -16.4649051 3.19579283 -9 1 C-7.45976004 0.93049459 -5.91665012 0.91547643 -4.375 0.9375 C-3.14910156 0.95103516 -3.14910156 0.95103516 -1.8984375 0.96484375 C-1.27195312 0.97644531 -0.64546875 0.98804687 0 1 C0 0.67 0 0.34 0 0 Z M-425 700 C-425.59039062 700.41507813 -426.18078125 700.83015625 -426.7890625 701.2578125 C-437.67187663 709.55657944 -443.90723767 722.88056695 -446.6171875 735.984375 C-447.03659859 739.28830724 -447.13261115 742.48262237 -447.125 745.8125 C-447.12757813 746.95332031 -447.13015625 748.09414063 -447.1328125 749.26953125 C-447.31071803 751.91325466 -447.31071803 751.91325466 -446 753 C-445.89163547 754.43583001 -445.81423833 755.8740202 -445.75 757.3125 C-444.48366777 770.58063772 -436.47480147 782.36976201 -426.96875 791.37890625 C-411.74207484 803.91674393 -396.13959646 806.31984816 -377 805 C-372.64909835 804.20187863 -368.97046684 802.92543723 -365 801 C-363.59234375 800.34644531 -363.59234375 800.34644531 -362.15625 799.6796875 C-347.70926414 792.41650505 -337.46731736 780.19405638 -332 765 C-327.93529037 751.46050948 -328.46882272 736.00376116 -334 723 C-334.32742188 722.14664063 -334.65484375 721.29328125 -334.9921875 720.4140625 C-340.54926287 707.55572023 -352.40497054 697.24657433 -365.02734375 691.66015625 C-372.85919268 688.70613001 -379.6781734 687.83881815 -388 687.875 C-388.88945312 687.87113281 -389.77890625 687.86726562 -390.6953125 687.86328125 C-403.47682213 687.88235813 -414.83113058 692.24272017 -425 700 Z M-390 805 C-386 806 -386 806 -386 806 Z " fill="#27BB6D" transform="translate(627,75)"/>
<path d="M0 0 C2 1 2 1 2 1 Z " fill="#2ABB6D" transform="translate(221,947)"/>
<path d="" fill="#2ABB6E" transform="translate(0,0)"/>
<path d="M0 0 C2 1 2 1 2 1 Z " fill="#2CBC6D" transform="translate(743,406)"/>
<path d="" fill="#3AC17A" transform="translate(0,0)"/>
<path d="" fill="#2CB969" transform="translate(0,0)"/>
<path d="" fill="#2AB269" transform="translate(0,0)"/>
<path d="" fill="#2AB76E" transform="translate(0,0)"/>
<path d="" fill="#21B669" transform="translate(0,0)"/>
<path d="" fill="#2FBB70" transform="translate(0,0)"/>
<path d="" fill="#2FB86E" transform="translate(0,0)"/>
<path d="" fill="#3CBC74" transform="translate(0,0)"/>
<path d="" fill="#39B976" transform="translate(0,0)"/>
<path d="" fill="#1FB461" transform="translate(0,0)"/>
<path d="" fill="#36BE77" transform="translate(0,0)"/>
<path d="" fill="#23B368" transform="translate(0,0)"/>
<path d="" fill="#2DB06B" transform="translate(0,0)"/>
<path d="" fill="#39BC7C" transform="translate(0,0)"/>
<path d="" fill="#3CBD79" transform="translate(0,0)"/>
<path d="" fill="#19B25A" transform="translate(0,0)"/>
<path d="" fill="#33BC79" transform="translate(0,0)"/>
<path d="" fill="#27B869" transform="translate(0,0)"/>
<path d="" fill="#27BA6C" transform="translate(0,0)"/>
<path d="" fill="#2CB870" transform="translate(0,0)"/>
<path d="" fill="#20B96B" transform="translate(0,0)"/>
<path d="" fill="#34BF77" transform="translate(0,0)"/>
<path d="" fill="#2DBB6F" transform="translate(0,0)"/>
<path d="" fill="#38B670" transform="translate(0,0)"/>
<path d="" fill="#24BC6F" transform="translate(0,0)"/>
<path d="" fill="#39BB75" transform="translate(0,0)"/>
<path d="" fill="#1FBA62" transform="translate(0,0)"/>
<path d="" fill="#39BA78" transform="translate(0,0)"/>
<path d="" fill="#1EAE5E" transform="translate(0,0)"/>
<path d="" fill="#39C47E" transform="translate(0,0)"/>
<path d="" fill="#2EB46C" transform="translate(0,0)"/>
<path d="" fill="#26B767" transform="translate(0,0)"/>
<path d="" fill="#38BD77" transform="translate(0,0)"/>
<path d="" fill="#3EBC7A" transform="translate(0,0)"/>
<path d="" fill="#28B567" transform="translate(0,0)"/>
<path d="" fill="#35B672" transform="translate(0,0)"/>
<path d="" fill="#2FBB6D" transform="translate(0,0)"/>
<path d="" fill="#29B46A" transform="translate(0,0)"/>
<path d="" fill="#13B15B" transform="translate(0,0)"/>
<path d="" fill="#34BB78" transform="translate(0,0)"/>
<path d="" fill="#36BB74" transform="translate(0,0)"/>
<path d="" fill="#29B868" transform="translate(0,0)"/>
<path d="" fill="#22B562" transform="translate(0,0)"/>
<path d="" fill="#29B76D" transform="translate(0,0)"/>
<path d="" fill="#31BC71" transform="translate(0,0)"/>
<path d="" fill="#3DC17C" transform="translate(0,0)"/>
<path d="" fill="#26B76F" transform="translate(0,0)"/>
<path d="" fill="#37BD78" transform="translate(0,0)"/>
<path d="" fill="#29B664" transform="translate(0,0)"/>
<path d="" fill="#3EC378" transform="translate(0,0)"/>
<path d="" fill="#21B765" transform="translate(0,0)"/>
<path d="" fill="#37BD7B" transform="translate(0,0)"/>
<path d="" fill="#18B05E" transform="translate(0,0)"/>
<path d="" fill="#2EBA6E" transform="translate(0,0)"/>
<path d="" fill="#17B660" transform="translate(0,0)"/>
<path d="" fill="#3EC983" transform="translate(0,0)"/>
<path d="" fill="#27B65B" transform="translate(0,0)"/>
<path d="" fill="#1DB764" transform="translate(0,0)"/>
<path d="" fill="#33B772" transform="translate(0,0)"/>
<path d="" fill="#1AB05C" transform="translate(0,0)"/>
<path d="" fill="#31C073" transform="translate(0,0)"/>
<path d="" fill="#2DBA6F" transform="translate(0,0)"/>
<path d="" fill="#20B661" transform="translate(0,0)"/>
<path d="" fill="#17AF5C" transform="translate(0,0)"/>
<path d="" fill="#19B462" transform="translate(0,0)"/>
<path d="" fill="#30B870" transform="translate(0,0)"/>
<path d="" fill="#28B464" transform="translate(0,0)"/>
<path d="" fill="#38B976" transform="translate(0,0)"/>
<path d="" fill="#2BB670" transform="translate(0,0)"/>
<path d="" fill="#19B55C" transform="translate(0,0)"/>
<path d="" fill="#35B877" transform="translate(0,0)"/>
<path d="" fill="#22B96B" transform="translate(0,0)"/>
<path d="" fill="#27BB71" transform="translate(0,0)"/>
<path d="" fill="#23B66B" transform="translate(0,0)"/>
<path d="" fill="#23B261" transform="translate(0,0)"/>
<path d="" fill="#20B867" transform="translate(0,0)"/>
<path d="" fill="#2EB76E" transform="translate(0,0)"/>
<path d="" fill="#30B66E" transform="translate(0,0)"/>
<path d="" fill="#29B76B" transform="translate(0,0)"/>
<path d="" fill="#3EBC7A" transform="translate(0,0)"/>
<path d="" fill="#18B260" transform="translate(0,0)"/>
<path d="" fill="#20B566" transform="translate(0,0)"/>
<path d="" fill="#38BF77" transform="translate(0,0)"/>
<path d="" fill="#2CB870" transform="translate(0,0)"/>
<path d="" fill="#1EB762" transform="translate(0,0)"/>
<path d="" fill="#35BB71" transform="translate(0,0)"/>
<path d="" fill="#25B26A" transform="translate(0,0)"/>
<path d="" fill="#14B05E" transform="translate(0,0)"/>
<path d="" fill="#1AB663" transform="translate(0,0)"/>
<path d="" fill="#23BB70" transform="translate(0,0)"/>
<path d="" fill="#2AB868" transform="translate(0,0)"/>
<path d="" fill="#24B466" transform="translate(0,0)"/>
<path d="" fill="#2DBE72" transform="translate(0,0)"/>
<path d="" fill="#18AD5E" transform="translate(0,0)"/>
<path d="" fill="#22B668" transform="translate(0,0)"/>
<path d="" fill="#23B668" transform="translate(0,0)"/>
<path d="" fill="#36BA79" transform="translate(0,0)"/>
<path d="" fill="#1EB466" transform="translate(0,0)"/>
<path d="" fill="#1DB267" transform="translate(0,0)"/>
<path d="" fill="#29B067" transform="translate(0,0)"/>
<path d="" fill="#1CB964" transform="translate(0,0)"/>
<path d="" fill="#18B562" transform="translate(0,0)"/>
<path d="" fill="#14B45D" transform="translate(0,0)"/>
<path d="" fill="#3AC17A" transform="translate(0,0)"/>
<path d="" fill="#3CBA7A" transform="translate(0,0)"/>
<path d="" fill="#29B66A" transform="translate(0,0)"/>
<path d="" fill="#2FBE71" transform="translate(0,0)"/>
<path d="" fill="#19B25A" transform="translate(0,0)"/>
<path d="" fill="#13B863" transform="translate(0,0)"/>
<path d="" fill="#2AB86D" transform="translate(0,0)"/>
<path d="" fill="#22B870" transform="translate(0,0)"/>
<path d="" fill="#26B25D" transform="translate(0,0)"/>
<path d="" fill="#13B360" transform="translate(0,0)"/>
<path d="" fill="#1AB463" transform="translate(0,0)"/>
<path d="" fill="#27B76D" transform="translate(0,0)"/>
<path d="" fill="#15B35A" transform="translate(0,0)"/>
<path d="" fill="#3BBF76" transform="translate(0,0)"/>
<path d="" fill="#1DB665" transform="translate(0,0)"/>
<path d="" fill="#18B05B" transform="translate(0,0)"/>
<path d="" fill="#20B667" transform="translate(0,0)"/>
<path d="" fill="#35C074" transform="translate(0,0)"/>
<path d="" fill="#1DB565" transform="translate(0,0)"/>
<path d="" fill="#2DBD72" transform="translate(0,0)"/>
<path d="" fill="#35B972" transform="translate(0,0)"/>
<path d="" fill="#3ABE77" transform="translate(0,0)"/>
<path d="" fill="#34C078" transform="translate(0,0)"/>
<path d="" fill="#37BE74" transform="translate(0,0)"/>
<path d="" fill="#1BB05D" transform="translate(0,0)"/>
<path d="" fill="#20B766" transform="translate(0,0)"/>
<path d="" fill="#2DB76D" transform="translate(0,0)"/>
<path d="" fill="#35BE71" transform="translate(0,0)"/>
<path d="" fill="#15B45C" transform="translate(0,0)"/>
<path d="" fill="#21B866" transform="translate(0,0)"/>
<path d="" fill="#37BD78" transform="translate(0,0)"/>
<path d="" fill="#36BB76" transform="translate(0,0)"/>
<path d="" fill="#30BE73" transform="translate(0,0)"/>
<path d="" fill="#22B464" transform="translate(0,0)"/>
<path d="" fill="#1DB562" transform="translate(0,0)"/>
<path d="" fill="#19B55F" transform="translate(0,0)"/>
<path d="" fill="#23B565" transform="translate(0,0)"/>
<path d="" fill="#3CBD79" transform="translate(0,0)"/>
<path d="" fill="#2AB767" transform="translate(0,0)"/>
<path d="" fill="#38BF76" transform="translate(0,0)"/>
<path d="" fill="#2AB66C" transform="translate(0,0)"/>
<path d="" fill="#20B466" transform="translate(0,0)"/>
<path d="" fill="#21B061" transform="translate(0,0)"/>
<path d="" fill="#1EB561" transform="translate(0,0)"/>
<path d="" fill="#39BA76" transform="translate(0,0)"/>
<path d="" fill="#1EB05E" transform="translate(0,0)"/>
<path d="" fill="#29BA6C" transform="translate(0,0)"/>
<path d="" fill="#3BC07C" transform="translate(0,0)"/>
<path d="" fill="#28BC6A" transform="translate(0,0)"/>
<path d="" fill="#27BC6A" transform="translate(0,0)"/>
<path d="" fill="#18B760" transform="translate(0,0)"/>
<path d="" fill="#36C373" transform="translate(0,0)"/>
<path d="" fill="#35BB71" transform="translate(0,0)"/>
<path d="" fill="#1BB764" transform="translate(0,0)"/>
<path d="" fill="#35BA70" transform="translate(0,0)"/>
<path d="" fill="#33BB73" transform="translate(0,0)"/>
<path d="" fill="#29B46E" transform="translate(0,0)"/>
<path d="" fill="#2CB36A" transform="translate(0,0)"/>
<path d="" fill="#16B65A" transform="translate(0,0)"/>
<path d="" fill="#2ABC6F" transform="translate(0,0)"/>
<path d="" fill="#1BB359" transform="translate(0,0)"/>
<path d="" fill="#3EBE7A" transform="translate(0,0)"/>
<path d="" fill="#25B569" transform="translate(0,0)"/>
<path d="" fill="#3DBF76" transform="translate(0,0)"/>
<path d="" fill="#31BF6F" transform="translate(0,0)"/>
<path d="" fill="#36B56E" transform="translate(0,0)"/>
<path d="" fill="#24BA6B" transform="translate(0,0)"/>
<path d="" fill="#1EB665" transform="translate(0,0)"/>
<path d="" fill="#1CBC64" transform="translate(0,0)"/>
<path d="" fill="#26B76B" transform="translate(0,0)"/>
<path d="" fill="#30B670" transform="translate(0,0)"/>
<path d="" fill="#1EB261" transform="translate(0,0)"/>
<path d="" fill="#35BB76" transform="translate(0,0)"/>
<path d="" fill="#38BE75" transform="translate(0,0)"/>
<path d="" fill="#21B964" transform="translate(0,0)"/>
<path d="" fill="#24BD67" transform="translate(0,0)"/>
<path d="" fill="#19B45F" transform="translate(0,0)"/>
<path d="" fill="#17B660" transform="translate(0,0)"/>
<path d="" fill="#3DBF79" transform="translate(0,0)"/>
<path d="" fill="#2FBC72" transform="translate(0,0)"/>
<path d="" fill="#35BB75" transform="translate(0,0)"/>
<path d="" fill="#15B65D" transform="translate(0,0)"/>
<path d="" fill="#3BBF77" transform="translate(0,0)"/>
<path d="" fill="#38BA6F" transform="translate(0,0)"/>
<path d="" fill="#27BB6C" transform="translate(0,0)"/>
<path d="" fill="#2EB76B" transform="translate(0,0)"/>
<path d="" fill="#2BB56B" transform="translate(0,0)"/>
<path d="" fill="#20B360" transform="translate(0,0)"/>
<path d="" fill="#2DB56E" transform="translate(0,0)"/>
<path d="" fill="#1DB768" transform="translate(0,0)"/>
<path d="" fill="#34BD74" transform="translate(0,0)"/>
<path d="" fill="#2CBF6F" transform="translate(0,0)"/>
<path d="" fill="#2FB970" transform="translate(0,0)"/>
<path d="" fill="#3CBE7C" transform="translate(0,0)"/>
<path d="" fill="#19B364" transform="translate(0,0)"/>
<path d="" fill="#31BC77" transform="translate(0,0)"/>
<path d="" fill="#3EC278" transform="translate(0,0)"/>
<path d="" fill="#29BF73" transform="translate(0,0)"/>
<path d="" fill="#16B760" transform="translate(0,0)"/>
<path d="" fill="#23B769" transform="translate(0,0)"/>
<path d="" fill="#2DBF71" transform="translate(0,0)"/>
<path d="" fill="#1EAD5C" transform="translate(0,0)"/>
<path d="" fill="#38C47E" transform="translate(0,0)"/>
<path d="" fill="#35BB6C" transform="translate(0,0)"/>
<path d="" fill="#29B263" transform="translate(0,0)"/>
<path d="" fill="#26B766" transform="translate(0,0)"/>
<path d="" fill="#34BE75" transform="translate(0,0)"/>
<path d="" fill="#20B264" transform="translate(0,0)"/>
<path d="" fill="#22BA6B" transform="translate(0,0)"/>
<path d="" fill="#14B05A" transform="translate(0,0)"/>
<path d="" fill="#21B86A" transform="translate(0,0)"/>
<path d="" fill="#1FB363" transform="translate(0,0)"/>
<path d="" fill="#1DB463" transform="translate(0,0)"/>
<path d="" fill="#2AB66A" transform="translate(0,0)"/>
<path d="" fill="#33BD76" transform="translate(0,0)"/>
<path d="" fill="#31B773" transform="translate(0,0)"/>
<path d="" fill="#38BD7D" transform="translate(0,0)"/>
<path d="" fill="#30BA74" transform="translate(0,0)"/>
<path d="" fill="#1CB261" transform="translate(0,0)"/>
<path d="" fill="#2FB26F" transform="translate(0,0)"/>
<path d="" fill="#12B35B" transform="translate(0,0)"/>
<path d="" fill="#1DB861" transform="translate(0,0)"/>
<path d="" fill="#1BB15D" transform="translate(0,0)"/>
<path d="" fill="#1DB363" transform="translate(0,0)"/>
<path d="" fill="#14B15A" transform="translate(0,0)"/>
<path d="" fill="#35B973" transform="translate(0,0)"/>
<path d="" fill="#18B462" transform="translate(0,0)"/>
<path d="" fill="#28B769" transform="translate(0,0)"/>
<path d="" fill="#28BD6A" transform="translate(0,0)"/>
<path d="" fill="#32B76F" transform="translate(0,0)"/>
<path d="" fill="#26BA6C" transform="translate(0,0)"/>
<path d="" fill="#1AB75A" transform="translate(0,0)"/>
<path d="" fill="#25B569" transform="translate(0,0)"/>
<path d="" fill="#35C376" transform="translate(0,0)"/>
<path d="" fill="#37BC74" transform="translate(0,0)"/>
<path d="" fill="#3AC27A" transform="translate(0,0)"/>
<path d="" fill="#36BA72" transform="translate(0,0)"/>
<path d="" fill="#35BD76" transform="translate(0,0)"/>
<path d="" fill="#27B568" transform="translate(0,0)"/>
<path d="" fill="#25AD67" transform="translate(0,0)"/>
<path d="" fill="#19B35F" transform="translate(0,0)"/>
<path d="" fill="#2CB96D" transform="translate(0,0)"/>
<path d="" fill="#3EBD76" transform="translate(0,0)"/>
<path d="" fill="#32BC71" transform="translate(0,0)"/>
<path d="" fill="#2FB672" transform="translate(0,0)"/>
<path d="" fill="#15B360" transform="translate(0,0)"/>
<path d="" fill="#23B163" transform="translate(0,0)"/>
<path d="" fill="#3DBB7B" transform="translate(0,0)"/>
<path d="" fill="#1BB565" transform="translate(0,0)"/>
<path d="" fill="#16B662" transform="translate(0,0)"/>
<path d="" fill="#33BD76" transform="translate(0,0)"/>
<path d="" fill="#2CBB6E" transform="translate(0,0)"/>
<path d="" fill="#27B96C" transform="translate(0,0)"/>
<path d="" fill="#18B662" transform="translate(0,0)"/>
<path d="" fill="#1AB05B" transform="translate(0,0)"/>
<path d="" fill="#1CB966" transform="translate(0,0)"/>
<path d="" fill="#2BBB71" transform="translate(0,0)"/>
<path d="" fill="#3EC280" transform="translate(0,0)"/>
<path d="" fill="#31BA75" transform="translate(0,0)"/>
<path d="" fill="#15B159" transform="translate(0,0)"/>
<path d="" fill="#20AE60" transform="translate(0,0)"/>
<path d="" fill="#1CB765" transform="translate(0,0)"/>
<path d="" fill="#29B469" transform="translate(0,0)"/>
<path d="" fill="#1AB866" transform="translate(0,0)"/>
<path d="" fill="#2BB96E" transform="translate(0,0)"/>
<path d="" fill="#38BD73" transform="translate(0,0)"/>
<path d="" fill="#1AAD61" transform="translate(0,0)"/>
<path d="" fill="#24B566" transform="translate(0,0)"/>
<path d="" fill="#37BB7A" transform="translate(0,0)"/>
<path d="" fill="#24B863" transform="translate(0,0)"/>
<path d="" fill="#2ABC6C" transform="translate(0,0)"/>
<path d="" fill="#30BC78" transform="translate(0,0)"/>
<path d="" fill="#16AF5B" transform="translate(0,0)"/>
<path d="" fill="#19B46A" transform="translate(0,0)"/>
<path d="" fill="#33BA70" transform="translate(0,0)"/>
<path d="" fill="#15B65D" transform="translate(0,0)"/>
<path d="" fill="#3DC17E" transform="translate(0,0)"/>
<path d="" fill="#1DB668" transform="translate(0,0)"/>
<path d="" fill="#36C279" transform="translate(0,0)"/>
<path d="" fill="#30BC6D" transform="translate(0,0)"/>
<path d="" fill="#1BB65D" transform="translate(0,0)"/>
<path d="" fill="#2FB36C" transform="translate(0,0)"/>
<path d="" fill="#3CC37C" transform="translate(0,0)"/>
<path d="" fill="#27BA6F" transform="translate(0,0)"/>
<path d="" fill="#21B665" transform="translate(0,0)"/>
<path d="" fill="#29B86D" transform="translate(0,0)"/>
<path d="" fill="#3DC379" transform="translate(0,0)"/>
<path d="" fill="#29B96F" transform="translate(0,0)"/>
<path d="" fill="#1FAF62" transform="translate(0,0)"/>
<path d="" fill="#2ABC70" transform="translate(0,0)"/>
<path d="" fill="#2FB571" transform="translate(0,0)"/>
<path d="" fill="#3ABA77" transform="translate(0,0)"/>
<path d="" fill="#20B268" transform="translate(0,0)"/>
<path d="" fill="#28B466" transform="translate(0,0)"/>
<path d="" fill="#33BB72" transform="translate(0,0)"/>
<path d="" fill="#2CBB6E" transform="translate(0,0)"/>
<path d="" fill="#3AC07C" transform="translate(0,0)"/>
<path d="" fill="#35BD70" transform="translate(0,0)"/>
<path d="" fill="#38BE75" transform="translate(0,0)"/>
<path d="" fill="#21B565" transform="translate(0,0)"/>
<path d="" fill="#1BB260" transform="translate(0,0)"/>
<path d="" fill="#25B86C" transform="translate(0,0)"/>
<path d="" fill="#39BC76" transform="translate(0,0)"/>
<path d="" fill="#3DBE76" transform="translate(0,0)"/>
<path d="" fill="#21B366" transform="translate(0,0)"/>
<path d="" fill="#3CBD75" transform="translate(0,0)"/>
<path d="" fill="#3BBC71" transform="translate(0,0)"/>
<path d="" fill="#3DC077" transform="translate(0,0)"/>
<path d="" fill="#3DC174" transform="translate(0,0)"/>
<path d="" fill="#2BBB72" transform="translate(0,0)"/>
<path d="" fill="#35BE72" transform="translate(0,0)"/>
<path d="" fill="#2DB76C" transform="translate(0,0)"/>
<path d="" fill="#28BC6C" transform="translate(0,0)"/>
<path d="" fill="#2ABE6D" transform="translate(0,0)"/>
<path d="" fill="#21B765" transform="translate(0,0)"/>
<path d="" fill="#1EB161" transform="translate(0,0)"/>
<path d="" fill="#18B561" transform="translate(0,0)"/>
<path d="" fill="#1CB663" transform="translate(0,0)"/>
<path d="" fill="#21B366" transform="translate(0,0)"/>
<path d="" fill="#22B863" transform="translate(0,0)"/>
<path d="" fill="#2AB86A" transform="translate(0,0)"/>
<path d="" fill="#1BB45C" transform="translate(0,0)"/>
<path d="" fill="#16B15F" transform="translate(0,0)"/>
<path d="" fill="#2FBD76" transform="translate(0,0)"/>
<path d="" fill="#1BB665" transform="translate(0,0)"/>
<path d="" fill="#31BA74" transform="translate(0,0)"/>
<path d="" fill="#30B774" transform="translate(0,0)"/>
<path d="" fill="#20B765" transform="translate(0,0)"/>
<path d="" fill="#22B967" transform="translate(0,0)"/>
<path d="" fill="#39BA74" transform="translate(0,0)"/>
<path d="" fill="#3ABD77" transform="translate(0,0)"/>
<path d="" fill="#32C070" transform="translate(0,0)"/>
<path d="" fill="#2ABC6C" transform="translate(0,0)"/>
<path d="" fill="#35B873" transform="translate(0,0)"/>
<path d="" fill="#31BC6B" transform="translate(0,0)"/>
<path d="" fill="#24B664" transform="translate(0,0)"/>
<path d="" fill="#33BC75" transform="translate(0,0)"/>
<path d="" fill="#23B463" transform="translate(0,0)"/>
<path d="" fill="#1BB35B" transform="translate(0,0)"/>
<path d="" fill="#27B461" transform="translate(0,0)"/>
<path d="" fill="#1EB55D" transform="translate(0,0)"/>
<path d="" fill="#22B965" transform="translate(0,0)"/>
<path d="" fill="#14AF59" transform="translate(0,0)"/>
<path d="" fill="#20BB69" transform="translate(0,0)"/>
<path d="" fill="#3BBE79" transform="translate(0,0)"/>
<path d="" fill="#2DB76A" transform="translate(0,0)"/>
<path d="" fill="#3CBC77" transform="translate(0,0)"/>
<path d="" fill="#1AB461" transform="translate(0,0)"/>
<path d="" fill="#37BC7A" transform="translate(0,0)"/>
<path d="" fill="#2FBE6E" transform="translate(0,0)"/>
<path d="" fill="#28B566" transform="translate(0,0)"/>
<path d="" fill="#1EB368" transform="translate(0,0)"/>
<path d="" fill="#24B467" transform="translate(0,0)"/>
<path d="" fill="#34BD78" transform="translate(0,0)"/>
<path d="" fill="#36C175" transform="translate(0,0)"/>
<path d="" fill="#35BA6F" transform="translate(0,0)"/>
<path d="" fill="#22B868" transform="translate(0,0)"/>
<path d="" fill="#2EBA6E" transform="translate(0,0)"/>
<path d="" fill="#29B666" transform="translate(0,0)"/>
<path d="" fill="#22B468" transform="translate(0,0)"/>
<path d="" fill="#14B55C" transform="translate(0,0)"/>
<path d="" fill="#1FB662" transform="translate(0,0)"/>
<path d="" fill="#1CB35E" transform="translate(0,0)"/>
<path d="" fill="#20B264" transform="translate(0,0)"/>
<path d="" fill="#2CBC71" transform="translate(0,0)"/>
<path d="" fill="#26BA6D" transform="translate(0,0)"/>
<path d="" fill="#2BB669" transform="translate(0,0)"/>
<path d="" fill="#20B664" transform="translate(0,0)"/>
<path d="" fill="#2DBB6D" transform="translate(0,0)"/>
<path d="" fill="#36BD75" transform="translate(0,0)"/>
<path d="" fill="#2FBE72" transform="translate(0,0)"/>
<path d="" fill="#3EC381" transform="translate(0,0)"/>
<path d="" fill="#1CB265" transform="translate(0,0)"/>
<path d="" fill="#29BB75" transform="translate(0,0)"/>
<path d="" fill="#25B062" transform="translate(0,0)"/>
<path d="" fill="#1EB76D" transform="translate(0,0)"/>
<path d="" fill="#13B55B" transform="translate(0,0)"/>
<path d="" fill="#2DB96C" transform="translate(0,0)"/>
<path d="" fill="#1BB15C" transform="translate(0,0)"/>
<path d="" fill="#1FB662" transform="translate(0,0)"/>
<path d="" fill="#1AB061" transform="translate(0,0)"/>
<path d="" fill="#1FAD61" transform="translate(0,0)"/>
<path d="" fill="#1FBA6A" transform="translate(0,0)"/>
<path d="" fill="#1FB869" transform="translate(0,0)"/>
<path d="" fill="#1EB667" transform="translate(0,0)"/>
<path d="" fill="#23B869" transform="translate(0,0)"/>
<path d="" fill="#22B866" transform="translate(0,0)"/>
<path d="" fill="#2ABA66" transform="translate(0,0)"/>
<path d="" fill="#38BE72" transform="translate(0,0)"/>
<path d="" fill="#3AC47B" transform="translate(0,0)"/>
<path d="" fill="#38BC76" transform="translate(0,0)"/>
<path d="" fill="#23B76B" transform="translate(0,0)"/>
<path d="" fill="#3ABC74" transform="translate(0,0)"/>
<path d="" fill="#21B763" transform="translate(0,0)"/>
<path d="" fill="#12B65B" transform="translate(0,0)"/>
<path d="" fill="#19B15B" transform="translate(0,0)"/>
<path d="" fill="#27B165" transform="translate(0,0)"/>
<path d="" fill="#2FB870" transform="translate(0,0)"/>
<path d="" fill="#14B45D" transform="translate(0,0)"/>
<path d="" fill="#37BF77" transform="translate(0,0)"/>
<path d="" fill="#1CB261" transform="translate(0,0)"/>
<path d="" fill="#1BB462" transform="translate(0,0)"/>
<path d="" fill="#23B663" transform="translate(0,0)"/>
<path d="" fill="#27B969" transform="translate(0,0)"/>
<path d="" fill="#23BD68" transform="translate(0,0)"/>
<path d="" fill="#2FBE72" transform="translate(0,0)"/>
<path d="" fill="#22B565" transform="translate(0,0)"/>
<path d="" fill="#20BB68" transform="translate(0,0)"/>
<path d="" fill="#25B569" transform="translate(0,0)"/>
<path d="" fill="#27B769" transform="translate(0,0)"/>
<path d="" fill="#37B56C" transform="translate(0,0)"/>
<path d="" fill="#36BC79" transform="translate(0,0)"/>
<path d="" fill="#3CBD7A" transform="translate(0,0)"/>
<path d="" fill="#3DBA75" transform="translate(0,0)"/>
<path d="" fill="#2CB86B" transform="translate(0,0)"/>
<path d="" fill="#1AB35D" transform="translate(0,0)"/>
<path d="" fill="#27B764" transform="translate(0,0)"/>
<path d="" fill="#17B15F" transform="translate(0,0)"/>
<path d="" fill="#26BC70" transform="translate(0,0)"/>
<path d="" fill="#37C077" transform="translate(0,0)"/>
<path d="" fill="#30BB6E" transform="translate(0,0)"/>
<path d="" fill="#2BBD6B" transform="translate(0,0)"/>
<path d="" fill="#27BA6D" transform="translate(0,0)"/>
<path d="" fill="#31BC79" transform="translate(0,0)"/>
<path d="" fill="#39BD79" transform="translate(0,0)"/>
<path d="" fill="#33BE7A" transform="translate(0,0)"/>
<path d="" fill="#2BB266" transform="translate(0,0)"/>
<path d="" fill="#2FB56A" transform="translate(0,0)"/>
<path d="" fill="#3BB873" transform="translate(0,0)"/>
<path d="" fill="#1FB461" transform="translate(0,0)"/>
<path d="" fill="#2FB565" transform="translate(0,0)"/>
<path d="" fill="#1EBB68" transform="translate(0,0)"/>
<path d="" fill="#1EB168" transform="translate(0,0)"/>
<path d="" fill="#2BBA6B" transform="translate(0,0)"/>
<path d="" fill="#18B260" transform="translate(0,0)"/>
<path d="" fill="#1EB362" transform="translate(0,0)"/>
<path d="" fill="#1CB663" transform="translate(0,0)"/>
<path d="" fill="#21B369" transform="translate(0,0)"/>
<path d="" fill="#20B765" transform="translate(0,0)"/>
<path d="" fill="#23B56A" transform="translate(0,0)"/>
<path d="" fill="#20B762" transform="translate(0,0)"/>
</svg>
